/* XPM */
static char *_525969479189[] = {
/* columns rows colors chars-per-pixel */
"50 50 58 1 ",
"  c #010101",
". c #080707",
"X c #070807",
"o c #080807",
"O c #070708",
"+ c #080708",
"@ c #070808",
"# c #0B0B0B",
"$ c #100F0F",
"% c #0F100F",
"& c #10100F",
"* c #0F0F10",
"= c #100F10",
"- c #0F1010",
"; c #131313",
": c #181817",
"> c #181718",
", c #171818",
"< c #1B1B1B",
"1 c #201F1F",
"2 c #1F201F",
"3 c #1F1F20",
"4 c #1F2020",
"5 c #242424",
"6 c #2C2C2C",
"7 c #333333",
"8 c #383737",
"9 c #373837",
"0 c #383837",
"q c #373738",
"w c #383738",
"e c #373838",
"r c #3C3C3C",
"t c #434343",
"y c #4B4B4B",
"u c #504F4F",
"i c #4F504F",
"p c #50504F",
"a c #4F4F50",
"s c #504F50",
"d c #4F5050",
"f c #545454",
"g c #5B5B5B",
"h c #60605F",
"j c #5F5F60",
"k c #5F6060",
"l c #646464",
"z c #6B6B6B",
"x c #737374",
"c c #787777",
"v c #787877",
"b c #777778",
"n c #7C7C7C",
"m c #9F9F9F",
"M c #A09F9F",
"N c #9FA09F",
"B c #A0A09F",
"V c #9F9FA0",
/* pixels */
"                                                  ",
"                                                  ",
"  mBBBmmMMMMmBNBBBmmmmNmmVMBBBmmBBVVmBMBBBmmBBNm  ",
"  nnnnnnnnnnnnnnnnnnmnnnnnnnnnnnnnnnnnnnnnnnnnnn  ",
"  vnnnnnnnnnnnnnnnnnnbnvnnnnnnnnnnvnnnvnnnnnncnn  ",
"  xnbbxxbbccbxbbbbbnxcnxxvxvbbxxvvbbxvxvbbbxxxvv  ",
"  xxxxxxbxxxxxxxxxxxxxxxxxxxxxxxxxxxxxxxxxxxxxxx  ",
"  zxxzxxzxzxxzzxxzxzxxzxzxzxxzxxzxxzxxxxxzxxxxxz  ",
"  zzzzzzzzzzzzzzzzxzzzzzzxzzxzzxzzzzzzzzzzzzzzzz  ",
"  zzzzzzzzzzzzzzzzzzzzzzlzzzzlzzzzzzzzzzzzzzzzzz  ",
"  llzllllllzlzlllllllzlllzllllllzlllllzllzlllzlz  ",
"  llllllllllllllllllllllllllllllllllllllllllllll  ",
"  lhhhkkllkklglllljlhhhlglkhlklhlhklhklkhhlhhlhh  ",
"  gggggggggggggggggggggggggggjgggggggggggggggggg  ",
"  ggggggggfgggggggggggggggggfggggggggggggggggggg  ",
"  fffffgfgfggfffffffgfffgffgfgfffgfffffffgffgfff  ",
"  pfffffffffffffffffffffffffffffffffffffsfffffff  ",
"  ppipiyyaaasyufssfyadaadydfydfyfsyasyfaaafypypy  ",
"  yyyyyyyayyyyyyyyyyyyyayyyyyyyyyyyyyyyyyyyyyyyy  ",
"  yyyyyyyyyyyyyyyyyyyyyyyyyyyyyyyyyyyyyyyyyyyyyy  ",
"  ttttyytytttytttytytyttytytttytyttytytyttttyyty  ",
"  tttttttttttttttttttttttttttttttttttttttttttttt  ",
"  ttttrttttttttrrtrtrrtttrtrrttttrrttttrttttrttt  ",
"  rrrrrrrrrrrrrrrtrrrtrrrrrtrrrrtrrrrrrrrrrrrrrr  ",
"  rrrrwrrrrrrrrrrr0rrrrrrrrrrrrrrrrrrerrrrrrrrrr  ",
"  077rr7888707r770007979ww78qq07eq7eqq7q7q7r7r7e  ",
"  77777778877777777979777777777777777q7777777777  ",
"  7776776777777777677777777777777777767777677777  ",
"  6676676766676676677676667666766667666667666676  ",
"  6666666666666666666666666666666666666666666666  ",
"  6666656566666666656565666666666656666656666666  ",
"  5555656555555555655656555555555656555656555555  ",
"  5555555555555555555555555555555555555555555555  ",
"  55552511155135155135455445455534555545534553<5  ",
"  <<3335<11331<15131<533<5<55<2435<<5<34<5<54513  ",
"  <<<<<<<1<3<3<<<<<3<<<<<<<:<<<<<<<<<<<<<<<<<<<<  ",
"  <<<:<<<<,,<<<:<<:<<<:<<<<<<<<<:<<<<<<<<<<<<:<:  ",
"  ::::::>,,,::::::::>:::::::,,,,::::>>,,,:::::::  ",
"  ;;>;>;;>,,;>>>;:>;>;;:>;>;;>>;:>>;;>,;;>>;;>,;  ",
"  ;;;;;;;;;;;;;;;;;;;;;;;;;;;;;;;;;;;;;;;;;;;;;;  ",
"  ;;;;;;-;;*;;;;;;-;;#;-;-*;;&;;;;;;;*;;;=;;;;;#  ",
"  #;#$#***;-##;##;-*$$-;#;#;#;#=###;#;#-#*==#%#;  ",
"  =#######*##$##*#####&##*#-#$##&####*###*#**=##  ",
"  ##############################################  ",
"  #@@####@####o##@#@@#@###@#@#X###o###@##@######  ",
"  ..O#OO...@++.X#@..@@@#+....#.@#o..#@.O...@@...  ",
"  ... @@ O@.....@@.@@..  .. XX.. .. . @@. @XX@ .  ",
"  . . . O  .  .  O  . X .. .  . ..X . . @  .  .   ",
"                                                  ",
"                                                  "
};
