/* XPM */
static char *_525969491141[] = {
/* columns rows colors chars-per-pixel */
"50 50 58 1 ",
"  c black",
". c #0B0B0B",
"X c #121212",
"o c #1B1B1B",
"O c #242424",
"+ c #2C2C2C",
"@ c #343434",
"# c #3C3C3C",
"$ c #424242",
"% c #484747",
"& c #474847",
"* c #484847",
"= c #474748",
"- c #484748",
"; c #474848",
": c #4D4D4D",
"> c #545454",
", c #5A5A5A",
"< c #605F5F",
"1 c #60605F",
"2 c #5F5F60",
"3 c #605F60",
"4 c #5F6060",
"5 c #646464",
"6 c #6C6C6C",
"7 c #737373",
"8 c #7A7A7A",
"9 c #7F807F",
"0 c #80807F",
"q c #7F7F80",
"w c #807F80",
"e c #7F8080",
"r c #858585",
"t c #8C8C8C",
"y c #929393",
"u c #9B9B9B",
"i c #A09F9F",
"p c #9FA09F",
"a c #A0A09F",
"s c #9F9FA0",
"d c #A09FA0",
"f c #A5A5A5",
"g c #ABABAB",
"h c #B3B3B3",
"j c #B8B7B7",
"k c #B7B8B7",
"l c #B8B8B7",
"z c #B7B7B8",
"x c #B8B7B8",
"c c #BDBDBD",
"v c #C3C3C3",
"b c #CBCBCB",
"n c #D3D3D3",
"m c #DBDBDB",
"M c #E4E4E4",
"N c #EDEDED",
"B c #F4F4F4",
"V c #F9F9F9",
/* pixels */
"                                                  ",
"                                                  ",
"  VVVVVVVVVVVVVVVVVVVVVVVVVVVVVVVVVVVVVVVVVVVVVV  ",
"  BBBVBVBBBBBVBVBVBBBBBBVBBVBVBBBBBBVVBVBBVBBVBB  ",
"  BBBBBBBBNBBBBBBBBBNBBBBBBBBBBBBBNBBBBNBBBBBBBB  ",
"  NNNNNNBNNBNNNNNNBNNNNBNNNNBNNNNNNBNNNNNNNNNNNN  ",
"  NNNNNNNNNNNNNNNNNNNNNNNNNNNNMNNNNNNNNNNNNNNNNN  ",
"  NMMMMMMMMMMMMMMMMMMMMMMMNMMMMMNMMMMMNMMNMMMMMM  ",
"  MMMMMMMMMMMMMMMMMMMMMMMMMMMMMMMMmMMMMMMMMMMMMM  ",
"  mmmmmmmmmmmmmmmmmmmmmmmmmmmmmmMmmmmmmmmmmmmmmm  ",
"  mmmnmmnmmmnmmmmmnmmmnnmnmmnmnmmnmmmmmmmnmmmnmm  ",
"  nnnnnnnnnnnnnnnnnnnnnnnnnnnnnnnnnnnnnbnnnnnnnn  ",
"  nbbnbbbnnbbnnbnnnbnnbnnnbnnnbnbbbbbbbbbbbbbbbb  ",
"  vbbvbbbvbvbvvbvvbvbvvbvbvbbvvvbbbbbbbbbbbbbbbb  ",
"  vvvvvvvvvvvvvvvvvvvvvvvvvvvvvvvvvvvvvvvvvvvvvv  ",
"  cccccccccccccccccccccccccccccccccccccccccccccl  ",
"  xhjkkxkzxhhkkkkkkkkkkkkkkkkhxjlllkkkhkkkkkjjkk  ",
"  hhhhhhhhhhhhhhhhhhhhhhhghhhhhhhhhhhhhhhhghhhhh  ",
"  gggggggggggggggggggggggggggggggggggggggggggggg  ",
"  ffffffffffffffffffffffffffffffffffffffffffffff  ",
"  spussussssususpppuppuufuuuuuidpiuuuussfuuiuaii  ",
"  uuuuuuuyuuuuuuyuuuuuuuuuuuuuuuuuuuuuuuuuuuuuyu  ",
"  yyyyyyyyytyyyyyyyyyyyyyyyyyyyyyyyyyyyyyyyyyyyy  ",
"  tttttttttttttttttttttttttttttttttttttttttttttt  ",
"  trrrrrrrrrrrrrrrrrrrrrrrrrrrrrrrrrrrrrrrrrrrrr  ",
"  898r8rr800wwr88r08r8r0r8e8r89rr8990ew0qre8r8r8  ",
"  8888888888888888888888888888888888888888888888  ",
"  7777777777777777777777777777777777777777777778  ",
"  6666666666666666666666666666666666666666666666  ",
"  5555565565565556555565655555655565555555656555  ",
"  51,55,23455,<11<51,55,11,553113322555254245,11  ",
"  ,,,,,,,,,,,,,,,,,,,,,,,,,,,,,,,,,,,,,,>,,,,,,,  ",
"  >>>>>>>>>>>>>>>>>>>>>>>>>>>>>>>>>>>>>>>>>>>>>>  ",
"  :>:::>::::::>::::::>:::::::::::::>::::::::::>:  ",
"  %&;***=%%*&%&&****&&&;*;**&;&&*&;*&=&&**-*=---  ",
"  $$$$$$$$$$$$$$$$$$$$$$$$$$$$$$$$$$$$$$$$$$$$$$  ",
"  ###########################################$##  ",
"  @@#@@@@#@@@@@#@@@@@#@@@#@@#@@@#@@#@@#@@#@@@@@@  ",
"  @@@+@@@@+@@+@@@@+@@@@@@@+@@+@@+@@+@@@+@+@@+@@@  ",
"  ++++++++++++++++++++++++++++++++++++++++++++++  ",
"  OOOOOOOOOOOOOOOOOOO+OOOOOOOOOOOOOOOOO++OOOOOOO  ",
"  OOOOOOOOOOOOOOOOOOOOOOOOOOOOOOOOOOOOOOOOOOOOOO  ",
"  oooOoooooooooooooooooooooooooooooOoooooooooooo  ",
"  oXoooooooooooooooooooXooooooooooXooooooooooooo  ",
"  XoXXXXoXXXXXXXXXXXXXXXXXXXXXXXXXoXXXoXoXXXXXXX  ",
"  XXX.XXX.XXXXXXX.XXXXXXXXXXXXXXX.XX.XX.X.XXXXXX  ",
"  ...................X.....X....................  ",
"  ..................... ........................  ",
"                                                  ",
"                                                  "
};
